<svg width="113" height="20" viewBox="0 0 113 20" fill="none" xmlns="http://www.w3.org/2000/svg">
<path d="M0.0357031 8.9C0.569037 8.9 0.935703 8.82 1.1357 8.66C1.34904 8.48667 1.4557 8.14 1.4557 7.62V3.04C1.4557 2.14667 1.62237 1.52 1.9557 1.16C2.28904 0.786666 2.84904 0.599999 3.6357 0.599999H4.9357V2H3.9157C3.5957 2 3.36237 2.05333 3.2157 2.16C3.08237 2.25333 3.0157 2.44667 3.0157 2.74V7.62C3.0157 8.28667 2.84904 8.83333 2.5157 9.26C2.1957 9.68667 1.7957 9.94 1.3157 10.02C1.7957 10.0733 2.1957 10.3133 2.5157 10.74C2.84904 11.1667 3.0157 11.7133 3.0157 12.38V17.26C3.0157 17.5533 3.08237 17.7467 3.2157 17.84C3.36237 17.9467 3.5957 18 3.9157 18H4.9357V19.4H3.6357C2.84904 19.4 2.28904 19.2133 1.9557 18.84C1.62237 18.48 1.4557 17.8533 1.4557 16.96V12.38C1.4557 11.86 1.34904 11.52 1.1357 11.36C0.935703 11.1867 0.569037 11.1 0.0357031 11.1V8.9ZM27.8573 13.84C27.8573 14.9867 27.5906 15.8 27.0573 16.28C26.5373 16.76 25.6706 17 24.4573 17H20.3373V3H24.2173C25.4173 3 26.3239 3.24667 26.9373 3.74C27.5506 4.22 27.8573 5.01333 27.8573 6.12V13.84ZM26.1173 5.94C26.1173 5.5 25.9839 5.15333 25.7173 4.9C25.4506 4.63333 25.0973 4.5 24.6573 4.5H22.0773V15.5H24.6373C25.1439 15.5 25.5173 15.3867 25.7573 15.16C25.9973 14.92 26.1173 14.5467 26.1173 14.04V5.94ZM38.238 3V4.46H33.298V9.04H37.738V10.5H33.298V15.54H38.238V17H31.558V3H38.238ZM41.4188 3H43.1788L45.5788 15.24L48.1588 3H49.8788L46.7388 17H44.3588L41.4188 3ZM57.4996 7V9H55.4996V7H57.4996ZM57.4996 15V17H55.4996V15H57.4996ZM68.1004 12.3H66.4404L64.4804 4.44V17H62.9604V3H65.7404L67.3404 10.16L68.9604 3H71.6604V17H70.1004V4.44L68.1004 12.3ZM81.4412 3V4.46H76.5012V9.04H80.9412V10.5H76.5012V15.54H81.4412V17H74.7612V3H81.4412ZM86.862 11.84V17H85.122V3H86.862V9.04L90.662 3H92.562L88.702 9.18L92.802 17H90.802L87.622 10.7L86.862 11.84ZM112.944 11.1C112.41 11.1 112.037 11.1867 111.824 11.36C111.624 11.52 111.524 11.86 111.524 12.38V16.96C111.524 17.8533 111.357 18.48 111.024 18.84C110.69 19.2133 110.13 19.4 109.344 19.4H108.044V18H109.064C109.384 18 109.61 17.9467 109.744 17.84C109.89 17.7467 109.964 17.5533 109.964 17.26V12.38C109.964 11.7133 110.124 11.1667 110.444 10.74C110.777 10.3133 111.184 10.0733 111.664 10.02C111.184 9.94 110.777 9.68667 110.444 9.26C110.124 8.83333 109.964 8.28667 109.964 7.62V2.74C109.964 2.44667 109.89 2.25333 109.744 2.16C109.61 2.05333 109.384 2 109.064 2H108.044V0.599999H109.344C110.13 0.599999 110.69 0.786666 111.024 1.16C111.357 1.52 111.524 2.14667 111.524 3.04V7.62C111.524 8.14 111.624 8.48667 111.824 8.66C112.037 8.82 112.41 8.9 112.944 8.9V11.1Z" fill="#D7EBFF"/>
</svg>
